Coordinates
version=1
nRows=17
nColumns=24
inDegrees=yes

Units are S.I. units (second, meters, Newtons, ...)
Angles are in degrees.

endheader
time	pelvis_tilt	pelvis_list	pelvis_rotation	pelvis_tx	pelvis_ty	pelvis_tz	hip_flexion_r	hip_adduction_r	hip_rotation_r	knee_angle_r	ankle_angle_r	subtalar_angle_r	mtp_angle_r	hip_flexion_l	hip_adduction_l	hip_rotation_l	knee_angle_l	ankle_angle_l	subtalar_angle_l	mtp_angle_l	lumbar_extension	lumbar_bending	lumbar_rotation
      2.55500000	     -8.72376433	      7.32160664	    356.40801945	      0.56204167	      1.37233091	     -0.99646236	      5.46296546	     -6.04665487	      4.16144197	    -35.25202868	     -0.18928681	      3.55527166	     24.87570123	     24.19394330	      9.71779346	      3.95356086	     -7.93877551	    -13.11432943	     -9.94970504	     26.37927786	     -6.71322910	     -2.58176208	     13.34554174
      2.56000000	     -8.64876602	      7.46128651	    356.44144712	      0.56726519	      1.37281315	     -0.99709340	      6.08821553	     -6.31411067	      4.18163619	    -36.76052068	     -1.34489281	      3.98407416	     25.83873054	     24.00287490	      9.98044348	      4.14552830	     -8.33750517	    -12.76967815	    -10.09087819	     25.39743030	     -6.80420599	     -2.74916621	     13.23395675
      2.56500000	     -8.58371850	      7.59140592	    356.47926950	      0.57245882	      1.37326681	     -0.99772753	      6.74838580	     -6.56506576	      4.22441967	    -38.27087591	     -2.46542501	      4.41511732	     26.60678376	     23.80350000	     10.23150764	      4.30969480	     -8.69651518	    -12.41755968	    -10.17912242	     24.49284808	     -6.88198086	     -2.90283096	     13.13078414
      2.57000000	     -8.47719083	      7.71002277	    356.51598083	      0.57762062	      1.37376278	     -0.99835566	      7.37447597	     -6.80058098	      4.28267206	    -39.75232138	     -3.54764705	      4.83949659	     27.21699380	     23.52845368	     10.47199102	      4.43937143	     -8.99447483	    -12.08427356	    -10.22096746	     23.60382926	     -7.00794712	     -3.04631336	     13.03939552
      2.57500000	     -8.41384160	      7.83817390	    356.54433386	      0.58277006	      1.37419133	     -0.99894709	      8.06932868	     -7.03022729	      4.38655663	    -41.22836455	     -4.50272519	      5.28970204	     27.59166447	     23.27301660	     10.70881034	      4.54036875	     -9.23099726	    -11.77092424	    -10.26595420	     22.84358308	     -7.07707621	     -3.19939178	     12.93903983
      2.58000000	     -8.30436276	      7.96324292	    356.56162146	      0.58789585	      1.37466002	     -0.99951289	      8.71858476	     -7.24906531	      4.51399951	    -42.66345021	     -5.34145590	      5.73322388	     27.79699887	     22.93050135	     10.93940106	      4.61244834	     -9.39173535	    -11.48131005	    -10.29669472	     22.11712730	     -7.19493152	     -3.34778356	     12.83644149
      2.58500000	     -8.20167464	      8.07312035	    356.57818844	      0.59299645	      1.37511799	     -1.00008027	      9.37656395	     -7.44055797	      4.66170013	    -44.05381381	     -6.04556651	      6.17327390	     27.84707124	     22.56467920	     11.15116692	      4.67849824	     -9.49090404	    -11.21720042	    -10.32277385	     21.46832015	     -7.30125281	     -3.47645705	     12.75540980
      2.59000000	     -8.10946529	      8.17812225	    356.58408635	      0.59807886	      1.37556445	     -1.00060908	     10.04965233	     -7.61014586	      4.83776934	    -45.40244877	     -6.57730803	      6.58641861	     27.77278022	     22.17908028	     11.34807713	      4.72941066	     -9.52462343	    -10.98170874	    -10.37062291	     20.93675017	     -7.39052887	     -3.59993739	     12.66661142
      2.59500000	     -8.01290469	      8.25291761	    356.58355198	      0.60306862	      1.37602875	     -1.00113714	     10.72112272	     -7.73454983	      5.02507439	    -46.69855038	     -6.96883526	      6.94126962	     27.62542800	     21.77372963	     11.50952014	      4.75157834	     -9.51765376	    -10.82108809	    -10.42682722	     20.50815983	     -7.50324999	     -3.67606748	     12.57555080
      2.60000000	     -7.91303733	      8.31143030	    356.58933643	      0.60813138	      1.37652405	     -1.00167651	     11.36335811	     -7.83573667	      5.21135051	    -47.91295943	     -7.20299266	      7.32429148	     27.31870764	     21.31338966	     11.65839614	      4.84884392	     -9.43183610	    -10.62150274	    -10.48352686	     19.96642626	     -7.57982861	     -3.74721684	     12.54216297
      2.60500000	     -7.80476730	      8.34795039	    356.57781822	      0.61310445	      1.37703642	     -1.00217427	     12.00064641	     -7.89567590	      5.41380597	    -49.07206967	     -7.28868297	      7.60267285	     27.02042353	     20.83310785	     11.77450656	      4.91175518	     -9.31204187	    -10.48371462	    -10.56163490	     19.58945965	     -7.68805086	     -3.77718217	     12.47465897
      2.61000000	     -7.66861678	      8.35273580	    356.56281420	      0.61804416	      1.37760678	     -1.00263887	     12.59197264	     -7.90970929	      5.60713910	    -50.14042492	     -7.32359227	      7.67480879	     26.98131604	     20.30543564	     11.85415377	      4.96337649	     -9.15707553	    -10.35956828	    -10.64953395	     19.50640728	     -7.83378339	     -3.76358754	     12.37131076
      2.61500000	     -7.60057806	      8.35742986	    356.53969862	      0.62298166	      1.37811825	     -1.00311669	     13.26063300	     -7.91061567	      5.82281283	    -51.17787788	     -7.05083360	      7.91893918	     26.47549196	     19.83228113	     11.93175022	      5.10309499	     -8.97136423	    -10.28712567	    -10.86154795	     19.02197728	     -7.87401552	     -3.77051133	     12.39612553
      2.62000000	     -7.48412642	      8.33426709	    356.51090029	      0.62784281	      1.37870523	     -1.00354521	     13.86715918	     -7.87301595	      6.02071185	    -52.12717030	     -6.78101263	      7.95745449	     26.20169292	     19.30878111	     11.97710015	      5.20633602	     -8.78524890	    -10.20418590	    -11.01992298	     18.78926709	     -7.99509160	     -3.73506571	     12.34603088
      2.62500000	     -7.40688771	      8.28191466	    356.49030015	      0.63271678	      1.37927268	     -1.00397458	     14.50012219	     -7.79368310	      6.20411460	    -52.99987920	     -6.40211061	      7.88185084	     26.00129449	     18.82093681	     11.99092104	      5.35009325	     -8.59522478	    -10.11731392	    -11.21221642	     18.60404668	     -8.05724140	     -3.66199817	     12.31101298
      2.63000000	     -7.30872159	      8.22304861	    356.45372306	      0.63754023	      1.37988136	     -1.00434267	     15.10862558	     -7.69588251	      6.39154637	    -53.79773419	     -5.98728782	      7.68166035	     25.96245886	     18.31849188	     11.98939600	      5.46186133	     -8.41492536	    -10.02406401	    -11.35361339	     18.50959813	     -8.15435079	     -3.57834958	     12.24013826
      2.63500000	     -7.21750203	      8.13184794	    356.44944390	      0.64234146	      1.38048830	     -1.00479181	     15.70497367	     -7.57538671	      6.52072025	    -54.52703009	     -5.44244890	      7.48019730	     25.68696147	     17.83694376	     11.97515384	      5.67924379	     -8.27939012	     -9.91254714	    -11.61591764	     18.25561179	     -8.23780449	     -3.46729893	     12.23029006
